<svg width="48" height="48" viewBox="0 0 48 48" fill="none" xmlns="http://www.w3.org/2000/svg">
<path d="M35.414 24.5859C35.2284 24.4 35.008 24.2525 34.7654 24.1519C34.5228 24.0513 34.2627 23.9995 34 23.9995C33.7373 23.9995 33.4772 24.0513 33.2346 24.1519C32.992 24.2525 32.7716 24.4 32.586 24.5859L29.398 27.7739C27.92 27.3339 25.162 26.3339 23.414 24.5859C21.666 22.8379 20.666 20.0799 20.226 18.6019L23.414 15.4139C23.5999 15.2283 23.7474 15.0079 23.848 14.7653C23.9486 14.5227 24.0004 14.2626 24.0004 13.9999C24.0004 13.7372 23.9486 13.4772 23.848 13.2345C23.7474 12.9919 23.5999 12.7715 23.414 12.5859L15.414 4.58591C15.2284 4.40002 15.008 4.25255 14.7654 4.15193C14.5228 4.0513 14.2627 3.99951 14 3.99951C13.7373 3.99951 13.4772 4.0513 13.2346 4.15193C12.992 4.25255 12.7716 4.40002 12.586 4.58591L7.162 10.0099C6.402 10.7699 5.974 11.8139 5.99 12.8799C6.036 15.7279 6.79 25.6199 14.586 33.4159C22.382 41.2119 32.274 41.9639 35.124 42.0119H35.18C36.236 42.0119 37.234 41.5959 37.99 40.8399L43.414 35.4159C43.5999 35.2303 43.7474 35.0099 43.848 34.7673C43.9486 34.5247 44.0004 34.2646 44.0004 34.0019C44.0004 33.7392 43.9486 33.4792 43.848 33.2365C43.7474 32.9939 43.5999 32.7735 43.414 32.5879L35.414 24.5859ZM35.16 38.0099C32.664 37.9679 24.124 37.2979 17.414 30.5859C10.682 23.8539 10.03 15.2839 9.99 12.8379L14 8.82791L19.172 13.9999L16.586 16.5859C16.3509 16.8208 16.1781 17.1106 16.0831 17.4291C15.9881 17.7475 15.974 18.0846 16.042 18.4099C16.09 18.6399 17.264 24.0939 20.584 27.4139C23.904 30.7339 29.358 31.9079 29.588 31.9559C29.9131 32.0258 30.2505 32.0128 30.5693 31.9181C30.888 31.8234 31.1778 31.65 31.412 31.4139L34 28.8279L39.172 33.9999L35.16 38.0099Z" fill="#192D46"/>
</svg>
