<svg width="208" height="156" viewBox="0 0 208 156" fill="none" xmlns="http://www.w3.org/2000/svg">
<path fill-rule="evenodd" clip-rule="evenodd" d="M120.565 108.631L123.028 106.212C119.555 102.489 113.43 101 109.072 100.876C104.715 100.752 99.4105 103.668 96.1268 107.204C92.843 110.741 89.875 120.295 93.1588 126.562C96.4425 132.828 102.694 137.233 110.083 137.233C115.993 137.233 121.344 133.717 123.281 131.959L120.565 129.291C117.534 132.58 111.85 134.076 107.746 133.572C104.56 133.181 95.6848 129.354 95.6848 119.365C95.6848 109.376 104.273 104.288 110.083 104.288C114.73 104.288 119.008 107.184 120.565 108.631ZM0 101.459V136.646H4.28464V109.15L25.0262 136.646H29.2135V101.459H25.0262V129.82L4.28464 101.459H0ZM153.079 136.646V101.459H157.363L178.105 129.82V101.459H182.292V136.646H178.105L157.363 109.15V136.646H153.079ZM81.1609 108.052L84.4818 106.85C84.4818 106.272 81.7077 100.872 76.4493 100.872C71.1909 100.872 68.7032 105.56 68.7032 108.052C68.7032 110.543 68.9418 115.731 75.9549 117.61C82.9951 119.497 84.0448 124.428 84.0448 126.176C84.0448 127.924 82.6516 133.693 76.8538 133.693C72.2156 133.693 69.7976 128.682 69.1684 126.176L65.4381 127.618C66.3969 130.823 70.0223 137.233 76.8538 137.233C85.3931 137.233 88.2246 129.061 88.2246 126.176C88.2246 120.452 82.9047 117.282 80.8512 116.058C80.6313 115.927 80.4489 115.818 80.3145 115.731C80.0903 115.586 79.6255 115.414 79.0297 115.194C76.7585 114.355 72.5841 112.812 72.5841 109.35C72.5841 105.854 74.8763 104.762 76.4493 104.412C79.3257 104.412 80.6691 106.838 81.1609 108.052ZM45.7528 101.459L32.4697 136.571H37.0267L42.2624 121.893H52.4429L58.0664 136.571H62.2355L49.2339 101.459H45.7528ZM51.0854 118.392H43.6197L47.0132 109.086H47.9828L51.0854 118.392ZM127.955 136.646V101.459H147.236V104.741H132.214V117.106H145.438V120.923H132.214V133.25H147.236V136.646H127.955ZM186.382 101.459H208V104.925H199.52V136.646H194.784V104.925H186.382V101.459Z" fill="#192D46"/>
<path fill-rule="evenodd" clip-rule="evenodd" d="M61.9327 146.616H63.0873V151.015H66.9611V146.616H68.1786V156H66.9611V152.169H63.0873V156H61.9327V146.616ZM78.0981 146.752V155.91H83.1202V155.026H79.2074V151.818H82.6519V150.824H79.2074V147.606H83.1202V146.752H78.0981ZM96.6018 146.767L93.127 155.91H94.3191L95.6887 152.088H98.3519L99.8229 155.91H100.914L97.5124 146.767H96.6018ZM97.9968 151.176H96.0438L96.9315 148.753H97.1852L97.9968 151.176ZM110.493 155.91V146.752H111.602V155.026H115.515V155.91H110.493ZM141.067 146.616H139.933V156H141.067V152.169H144.872V156H146.067V146.616H144.872V151.015H141.067V146.616ZM130.492 146.693H124.966V147.777H127.136V155.961H128.27V147.777H130.492V146.693Z" fill="#192D46"/>
<path d="M72.3211 43.3985L89.1811 26.4751V39.994L81.6616 38.7476L79.7919 40.6244L89.1811 50.0489V60.3219L72.3211 43.3985Z" fill="#192D46"/>
<path d="M91.8253 24.0297H91.6174L104.271 11.3283L117.004 24.1091L112.622 30.2481L101.375 18.9596L99.5058 20.8364L102.489 38.9674L91.8253 24.0297Z" fill="#192D46"/>
<path d="M119.705 37.358V26.8202L136.221 43.3985L119.705 59.9768V47.4372L127.204 48.6802L129.094 46.7826L119.705 37.358Z" fill="#192D46"/>
<path d="M106.438 48.5371L116.733 62.9597L104.271 75.4686L92.0093 63.1607L96.2815 57.176L107.511 68.4473L109.401 66.5497L106.438 48.5371Z" fill="#192D46"/>
<path d="M106.649 64.2569L97.6646 55.2385L103.761 46.6989L106.649 64.2569Z" fill="#192D46"/>
<path d="M95.9855 53.553L102.399 44.5686L91.524 42.766L91.5241 49.0748L95.9855 53.553Z" fill="#192D46"/>
<path d="M91.524 27.6453L101.837 42.0918L91.524 40.3824V27.6453Z" fill="#192D46"/>
<path d="M83.9956 41.5181L89.1811 42.3776V46.7231L83.9956 41.5181Z" fill="#192D46"/>
<path d="M94.6024 55.4906L91.5241 52.4007V59.8028L94.6024 55.4906Z" fill="#192D46"/>
<path d="M117.362 59.8028L107.036 45.3372L117.362 47.0489V59.8028Z" fill="#192D46"/>
<path d="M124.919 45.918L119.705 45.0536L119.705 40.6839L124.919 45.918Z" fill="#192D46"/>
<path d="M117.362 44.6653V38.3321L112.918 33.8711L106.498 42.8644L117.362 44.6653Z" fill="#192D46"/>
<path d="M117.362 27.6453V35.0063L114.301 31.9336L117.362 27.6453Z" fill="#192D46"/>
<path d="M102.266 23.1792L111.239 32.1857L105.151 40.714L102.266 23.1792Z" fill="#192D46"/>
<path fill-rule="evenodd" clip-rule="evenodd" d="M104 0L60.7643 43.3985L104 86.797L147.236 43.3985L104 0ZM119.705 63.3152V63.3773H119.643L104.271 78.807L68.9953 43.3985L104.271 7.98999L139.547 43.3985L119.705 63.3152Z" fill="#192D46"/>
</svg>
