<svg width="228" height="64" viewBox="0 0 228 64" fill="none" xmlns="http://www.w3.org/2000/svg">
<path fill-rule="evenodd" clip-rule="evenodd" d="M163.38 23.8834L165.2 22.0992C162.633 19.3544 158.106 18.2564 154.885 18.1649C151.665 18.0734 147.744 20.2235 145.318 22.8311C142.891 25.4387 140.697 32.4839 143.124 37.1044C145.551 41.7249 150.171 44.9729 155.632 44.9729C160 44.9729 163.955 42.3806 165.386 41.0844L163.38 39.1172C161.139 41.5419 156.938 42.6454 153.905 42.2738C151.55 41.9853 144.991 39.163 144.991 31.7977C144.991 24.4323 151.338 20.681 155.632 20.681C159.067 20.681 162.228 22.8159 163.38 23.8834ZM74.2728 18.5945V44.5405H77.4394V24.2658L92.769 44.5405H95.8637V18.5945H92.769V39.5073L77.4394 18.5945H74.2728ZM187.409 44.5405V18.5945H190.576L205.905 39.5073V18.5945H209V44.5405H205.905L190.576 24.2658V44.5405H187.409ZM134.257 23.4559L136.711 22.5699C136.711 22.1441 134.661 18.1621 130.775 18.1621C126.888 18.1621 125.05 21.6191 125.05 23.4559C125.05 25.2927 125.226 29.1184 130.409 30.5041C135.612 31.8952 136.388 35.5311 136.388 36.8201C136.388 38.1091 135.358 42.3627 131.074 42.3627C127.646 42.3627 125.858 38.6677 125.393 36.8201L122.636 37.8835C123.345 40.2467 126.025 44.9729 131.074 44.9729C137.385 44.9729 139.477 38.9469 139.477 36.8201C139.477 32.5996 135.546 30.2618 134.028 29.3594C133.865 29.2628 133.731 29.1826 133.631 29.1184C133.466 29.0112 133.122 28.8846 132.682 28.7223L132.682 28.7223C131.003 28.1036 127.918 26.9664 127.918 24.4136C127.918 21.8356 129.612 21.03 130.775 20.7722C132.9 20.7722 133.893 22.5613 134.257 23.4559ZM108.087 18.5945L98.2702 44.4849H101.638L105.508 33.6619H113.032L117.188 44.4849H120.269L110.66 18.5945H108.087ZM112.028 31.0806H106.511L109.019 24.2189H109.735L112.028 31.0806ZM168.841 44.5405V18.5945H183.091V21.0146H171.988V30.1323H181.762V32.9464H171.988V42.0359H183.091V44.5405H168.841ZM212.022 18.5945H228V21.1505H221.733V44.5405H218.232V21.1505H212.022V18.5945Z" fill="white"/>
<path fill-rule="evenodd" clip-rule="evenodd" d="M159.773 51.8916H160.626V55.1351H163.489V51.8916H164.389V58.8105H163.489V55.9859H160.626V58.8105H159.773V51.8916ZM171.72 51.9919V58.7441H175.431V58.0923H172.54V55.7268H175.085V54.9945H172.54V52.6217H175.431V51.9919H171.72ZM185.396 52.0028L182.827 58.7442H183.708L184.721 55.9261H186.689L187.776 58.7442H188.582L186.069 52.0028H185.396ZM186.426 55.2539H184.983L185.639 53.4672H185.827L186.426 55.2539ZM195.662 58.7441V51.9919H196.482V58.0923H199.374V58.7441H195.662ZM218.258 51.8916H217.42V58.8105H218.258V55.9859H221.07V58.8105H221.954V51.8916H221.07V55.1351H218.258V51.8916ZM210.443 51.9479H206.358V52.7478H207.962V58.782H208.801V52.7478H210.443V51.9479Z" fill="white"/>
<path d="M8.54138 32L21.0022 19.5215V29.4897L15.4447 28.5707L14.0628 29.9545L21.0022 36.9037V44.4785L8.54138 32Z" fill="white"/>
<path d="M22.9564 17.7183H22.8027L32.1548 8.35298L41.5654 17.7769L38.3265 22.3035L30.0147 13.9799L28.6328 15.3638L30.8374 28.7327L22.9564 17.7183Z" fill="white"/>
<path d="M43.5615 27.546V19.7759L55.7682 32L43.5615 44.2241V34.978L49.1037 35.8945L50.5009 34.4953L43.5615 27.546Z" fill="white"/>
<path d="M33.756 35.789L41.3652 46.4235L32.1548 55.647L23.0924 46.5717L26.2499 42.1589L34.549 50.4698L35.9462 49.0706L33.756 35.789Z" fill="white"/>
<path d="M33.9124 47.38L27.2721 40.7302L31.7775 34.4335L33.9124 47.38Z" fill="white"/>
<path d="M26.0311 39.4875L30.7712 32.8628L22.7337 31.5336V36.1855L26.0311 39.4875Z" fill="white"/>
<path d="M22.7337 20.3843L30.3556 31.0365L22.7337 29.7761V20.3843Z" fill="white"/>
<path d="M17.1697 30.6135L21.0022 31.2473V34.4514L17.1697 30.6135Z" fill="white"/>
<path d="M25.0089 40.9161L22.7337 38.6378V44.0958L25.0089 40.9161Z" fill="white"/>
<path d="M41.8299 44.0958L34.198 33.4295L41.8299 34.6916V44.0958Z" fill="white"/>
<path d="M47.4154 33.8577L43.5615 33.2204L43.5615 29.9984L47.4154 33.8577Z" fill="white"/>
<path d="M41.8299 32.9341V28.2643L38.5453 24.975L33.8005 31.6062L41.8299 32.9341Z" fill="white"/>
<path d="M41.8299 20.3843V25.812L39.5675 23.5463L41.8299 20.3843Z" fill="white"/>
<path d="M30.6727 17.0912L37.3043 23.7322L32.8048 30.0206L30.6727 17.0912Z" fill="white"/>
<path fill-rule="evenodd" clip-rule="evenodd" d="M31.9545 0L0 32L31.9545 64L63.9091 32L31.9545 0ZM43.5615 46.6856V46.7314H43.5158L32.1548 58.1085L6.08334 32L32.1548 5.89144L58.2263 32L43.5615 46.6856Z" fill="white"/>
</svg>
